
<svg xmlns="http://www.w3.org/2000/svg" viewBox="0 0 84.23 83.11"><defs><style>.cls-1{fill:#009245;}</style></defs><g id="Layer_2" data-name="Layer 2"><g id="Layer_1-2" data-name="Layer 1"><path class="cls-1" d="M84.23,41.56A41.55,41.55,0,0,0,43,0H11.23V14.72H42.68v0a26.81,26.81,0,0,1,0,53.61v0H11.23V83.11H43A41.55,41.55,0,0,0,84.23,41.56Z"/><path class="cls-1" d="M61.66,41.56c0-10.43-9-18.89-20.15-19H11.23v0H0v38H41.52C52.66,60.43,61.66,52,61.66,41.56ZM41.29,49.33H11.23V33.78H41.29a8.07,8.07,0,0,1,8.33,7.78A8.07,8.07,0,0,1,41.29,49.33Z"/></g></g></svg>